<?xml version="1.0" standalone="no"?>
<!DOCTYPE svg PUBLIC "-//W3C//DTD SVG 20010904//EN"
 "http://www.w3.org/TR/2001/REC-SVG-20010904/DTD/svg10.dtd">
<svg version="1.0" xmlns="http://www.w3.org/2000/svg"
 width="2558.000000pt" height="220.000000pt" viewBox="0 0 2558.000000 220.000000"
 preserveAspectRatio="xMidYMid meet">

<g transform="translate(0.000000,220.000000) scale(0.100000,-0.100000)"
fill="#000000" stroke="none">
<path d="M1655 2189 c-337 -16 -691 -56 -974 -109 -163 -31 -484 -109 -613
-150 l-68 -21 0 -954 0 -955 12790 0 12790 0 0 269 0 269 -157 55 c-706 246
-1632 469 -2415 581 -697 100 -1254 140 -1968 140 -600 0 -1017 -23 -1580 -90
-721 -85 -1278 -195 -2365 -465 -1204 -300 -1657 -405 -2110 -488 -708 -130
-1388 -206 -2075 -232 -378 -14 -1158 -6 -1475 16 -806 55 -1575 173 -2280
351 -632 160 -1042 291 -2706 862 -1214 417 -1886 606 -2669 751 -549 101
-981 149 -1555 171 -283 11 -331 11 -570 -1z"/>
</g>
</svg>
